<?xml version="1.0" encoding="UTF-8"?>
<svg version="1.1" xmlns="http://www.w3.org/2000/svg" width="64" height="64">
<path d="M0 0 C1.53140625 -0.08121094 1.53140625 -0.08121094 3.09375 -0.1640625 C8.73401229 -0.26555822 12.10081131 0.08555355 16.421875 3.890625 C17.57977924 5.08714681 18.73151413 6.28969146 19.875 7.5 C22.89683041 9.67571789 25.79576389 11.46038194 29.125 13.125 C31.875 14.5 31.875 14.5 33.875 16.5 C34.32421875 18.62890625 34.32421875 18.62890625 34.5625 21.0625 C34.64886719 21.86816406 34.73523437 22.67382812 34.82421875 23.50390625 C34.84097656 24.16261719 34.85773437 24.82132813 34.875 25.5 C33.875 26.5 33.875 26.5 31.3125 26.5625 C30.508125 26.541875 29.70375 26.52125 28.875 26.5 C28.875 27.16 28.875 27.82 28.875 28.5 C25.69745425 30.08877287 22.38117078 29.5 18.875 29.5 C17.885 29.995 17.885 29.995 16.875 30.5 C13.4375 30.75 13.4375 30.75 9.875 30.5 C9.4109375 30.00628906 8.946875 29.51257813 8.46875 29.00390625 C6.26056001 26.92019756 4.79756486 27.13034854 1.8125 27.1875 C0.49572266 27.19330078 0.49572266 27.19330078 -0.84765625 27.19921875 C-3.32162769 27.29100666 -3.32162769 27.29100666 -5.125 29.5 C-7.25390625 29.66015625 -7.25390625 29.66015625 -9.6875 29.5625 C-11.16581272 29.50809809 -12.64582541 29.47973733 -14.125 29.5 C-14.455 29.83 -14.785 30.16 -15.125 30.5 C-21.58653846 30.85897436 -21.58653846 30.85897436 -25.125 28.5 C-25.125 27.84 -25.125 27.18 -25.125 26.5 C-26.445 26.17 -27.765 25.84 -29.125 25.5 C-29.03731752 23.9156683 -28.92912671 22.33246433 -28.8125 20.75 C-28.75449219 19.86828125 -28.69648438 18.9865625 -28.63671875 18.078125 C-28.05283459 15.13641854 -27.15408382 13.68287746 -25.125 11.5 C-24.3825 11.2525 -23.64 11.005 -22.875 10.75 C-19.14337991 9.05380905 -17.23635254 6.41702429 -14.67578125 3.27734375 C-10.97643053 -0.96246627 -5.2240073 0.11608905 0 0 Z " fill="#F64D75" transform="translate(29.125,16.5)"/>
<path d="M0 0 C1.00289062 -0.03609375 2.00578125 -0.0721875 3.0390625 -0.109375 C8.55709646 -0.109375 11.88767876 0.40490471 16.1015625 4.109375 C17.2787691 5.32027108 18.45333501 6.53374105 19.625 7.75 C20.3576709 8.27883789 21.0903418 8.80767578 21.84521484 9.35253906 C22.43254395 9.81370117 23.01987305 10.27486328 23.625 10.75 C23.625 11.41 23.625 12.07 23.625 12.75 C15.45931953 13.15828402 15.45931953 13.15828402 11.625 9.75 C10.635 9.75 9.645 9.75 8.625 9.75 C8.295 10.74 7.965 11.73 7.625 12.75 C2.345 12.75 -2.935 12.75 -8.375 12.75 C-9.035 11.1 -9.695 9.45 -10.375 7.75 C-10.705 9.4 -11.035 11.05 -11.375 12.75 C-14.015 12.75 -16.655 12.75 -19.375 12.75 C-18.4108843 7.83300992 -17.51971946 5.03513336 -13.37255859 1.78198242 C-9.18844131 -0.379624 -4.60721978 -0.04701245 0 0 Z " fill="#EF93AB" transform="translate(29.375,16.25)"/>
<path d="M0 0 C0.33 0.99 0.66 1.98 1 3 C0.67 3.66 0.34 4.32 0 5 C2.64 5 5.28 5 8 5 C8.33 6.32 8.66 7.64 9 9 C7.68 9.33 6.36 9.66 5 10 C5.99 11.485 5.99 11.485 7 13 C7.125 15.6875 7.125 15.6875 7 18 C9.97 18 12.94 18 16 18 C15.34 19.32 14.68 20.64 14 22 C13.04287109 21.98259766 13.04287109 21.98259766 12.06640625 21.96484375 C11.24011719 21.95582031 10.41382812 21.94679688 9.5625 21.9375 C8.73878906 21.92589844 7.91507813 21.91429688 7.06640625 21.90234375 C5.00836062 21.76732652 5.00836062 21.76732652 4 23 C-2.46153846 23.35897436 -2.46153846 23.35897436 -6 21 C-6 20.34 -6 19.68 -6 19 C-7.32 18.67 -8.64 18.34 -10 18 C-9.91231752 16.4156683 -9.80412671 14.83246433 -9.6875 13.25 C-9.60048828 11.92742188 -9.60048828 11.92742188 -9.51171875 10.578125 C-8.92586408 7.62649078 -8.03741272 6.189605 -6 4 C-4.35008418 3.29289322 -2.68437744 2.62056011 -1 2 C-0.67 1.34 -0.34 0.68 0 0 Z " fill="#FE8E9E" transform="translate(10,24)"/>
<path d="M0 0 C0 0.66 0 1.32 0 2 C-1.32 2.33 -2.64 2.66 -4 3 C-2.35 3.66 -0.7 4.32 1 5 C0.67 6.65 0.34 8.3 0 10 C-0.78375 9.835 -1.5675 9.67 -2.375 9.5 C-4.88208039 8.9376293 -4.88208039 8.9376293 -7 9 C-7.33 9.33 -7.66 9.66 -8 10 C-14.72124218 10.40807542 -21.33986708 9.87346005 -28 9 C-28 7.35 -28 5.7 -28 4 C-21.4 4 -14.8 4 -8 4 C-7.67 3.01 -7.34 2.02 -7 1 C-4.53721199 -0.231394 -2.7204945 -0.07159196 0 0 Z " fill="#A1839E" transform="translate(45,33)"/>
<path d="M0 0 C4.79911244 0.0383929 7.16133823 1.59257923 10.66015625 4.734375 C11.875 6.4375 11.875 6.4375 11.875 10.4375 C9.22909986 10.46434679 6.58346904 10.48426357 3.9375 10.5 C2.80538086 10.51256836 2.80538086 10.51256836 1.65039062 10.52539062 C-0.27494313 10.53402441 -2.20035581 10.48974333 -4.125 10.4375 C-5.125 9.4375 -5.125 9.4375 -5.2578125 7.625 C-5.25523438 6.903125 -5.25265625 6.18125 -5.25 5.4375 C-5.25257812 4.715625 -5.25515625 3.99375 -5.2578125 3.25 C-5.006624 -0.17798418 -3.02317391 0.16909278 0 0 Z " fill="#6792E0" transform="translate(25.125,18.5625)"/>
<path d="M0 0 C1 1 1 1 1.0625 3.5625 C1.041875 4.366875 1.02125 5.17125 1 6 C3.97 6 6.94 6 10 6 C9 9 9 9 7 10 C4.33333333 10 1.66666667 10 -1 10 C-1.99 10.495 -1.99 10.495 -3 11 C-9.3 11.57272727 -9.3 11.57272727 -12.0625 9.3125 C-13 7 -13 7 -12.1875 4.25 C-11.795625 3.5075 -11.40375 2.765 -11 2 C-10.5875 2.66 -10.175 3.32 -9.75 4 C-9.1725 4.66 -8.595 5.32 -8 6 C-6.68 6 -5.36 6 -4 6 C-4 4.68 -4 3.36 -4 2 C-5.65 1.67 -7.3 1.34 -9 1 C-8 -1 -8 -1 -6.1875 -1.75 C-3.47867724 -2.05957974 -2.28539999 -1.41852413 0 0 Z " fill="#373637" transform="translate(49,36)"/>
<path d="M0 0 C0.66 0.33 1.32 0.66 2 1 C1.67 2.65 1.34 4.3 1 6 C3.43717258 5.72965366 3.43717258 5.72965366 6 5 C6.66 4.01 7.32 3.02 8 2 C8.66 2 9.32 2 10 2 C10 3.32 10 4.64 10 6 C12.97 6 15.94 6 19 6 C18.34 7.32 17.68 8.64 17 10 C16.36191406 9.98839844 15.72382813 9.97679687 15.06640625 9.96484375 C14.24011719 9.95582031 13.41382812 9.94679688 12.5625 9.9375 C11.73878906 9.92589844 10.91507813 9.91429687 10.06640625 9.90234375 C8.00836062 9.76732652 8.00836062 9.76732652 7 11 C0.53846154 11.35897436 0.53846154 11.35897436 -3 9 C-3.375 5.5 -3.375 5.5 -3 2 C-2.01 1.34 -1.02 0.68 0 0 Z " fill="#2F2E2F" transform="translate(7,36)"/>
<path d="M0 0 C0.99 0.66 1.98 1.32 3 2 C5.02542148 2.36351504 5.02542148 2.36351504 7.23046875 2.4140625 C8.03291016 2.45273437 8.83535156 2.49140625 9.66210938 2.53125 C10.91217773 2.57765625 10.91217773 2.57765625 12.1875 2.625 C13.03248047 2.66367187 13.87746094 2.70234375 14.74804688 2.7421875 C16.83167524 2.83636279 18.91580753 2.91926675 21 3 C19.79882812 4.96679688 19.79882812 4.96679688 18 7 C15.77929688 7.51757812 15.77929688 7.51757812 13.21875 7.53125 C11.83236328 7.53898437 11.83236328 7.53898437 10.41796875 7.546875 C9.45503906 7.53140625 8.49210937 7.5159375 7.5 7.5 C6.53707031 7.51546875 5.57414062 7.5309375 4.58203125 7.546875 C3.65777344 7.54171875 2.73351562 7.5365625 1.78125 7.53125 C0.93626953 7.52673828 0.09128906 7.52222656 -0.77929688 7.51757812 C-3 7 -3 7 -4.79882812 4.96679688 C-5.19521484 4.31775391 -5.59160156 3.66871094 -6 3 C-4.02 3 -2.04 3 0 3 C0 2.01 0 1.02 0 0 Z " fill="#FA4C78" transform="translate(19,30)"/>
<path d="M0 0 C4.13223269 -0.59031896 7.59225152 -1.02813091 11.0859375 1.5234375 C12.29201203 2.7702234 13.46290932 4.05234069 14.58984375 5.37109375 C15.92274972 7.12117536 15.92274972 7.12117536 18 8 C18 8.66 18 9.32 18 10 C13.32323952 10.77946008 11.18213436 10.84390328 7.2421875 8.03125 C4.72448147 5.76459728 2.2971113 3.49010631 0 1 C0 0.67 0 0.34 0 0 Z " fill="#6DA7F1" transform="translate(35,19)"/>
<path d="M0 0 C2.1385485 2.1385485 2.42655063 3.13275314 3 6 C4.68029297 6.03867187 4.68029297 6.03867187 6.39453125 6.078125 C7.86722646 6.13440635 9.3398812 6.19175368 10.8125 6.25 C11.91948242 6.27126953 11.91948242 6.27126953 13.04882812 6.29296875 C18.54974762 6.54187913 18.54974762 6.54187913 21.01171875 9.046875 C21.50091797 10.01367188 21.50091797 10.01367188 22 11 C19.08308475 11.05401695 16.16717276 11.09368066 13.25 11.125 C12.425 11.14175781 11.6 11.15851562 10.75 11.17578125 C9.95078125 11.18222656 9.1515625 11.18867187 8.328125 11.1953125 C7.5949707 11.20578613 6.86181641 11.21625977 6.10644531 11.22705078 C4 11 4 11 0 9 C0 6.03 0 3.06 0 0 Z " fill="#FE7088" transform="translate(18,22)"/>
<path d="M0 0 C2.375 2 2.375 2 4 4 C2.35 5.98 0.7 7.96 -1 10 C-2.65 9.67 -4.3 9.34 -6 9 C-5.67 7.35 -5.34 5.7 -5 4 C-5.99 4.33 -6.98 4.66 -8 5 C-8.33 6.65 -8.66 8.3 -9 10 C-9.33 10 -9.66 10 -10 10 C-10.32152515 6.46322336 -10.4131192 4.6037896 -8.375 1.625 C-5.28813568 -0.48706506 -3.6717087 -0.61195145 0 0 Z " fill="#60595C" transform="translate(13,33)"/>
<path d="M0 0 C0.66 0.33 1.32 0.66 2 1 C2.4140625 3.06640625 2.4140625 3.06640625 2.625 5.5625 C2.69976562 6.38878906 2.77453125 7.21507812 2.8515625 8.06640625 C2.90054688 8.70449219 2.94953125 9.34257813 3 10 C-1.79300133 11.39151652 -6.15135782 10.68662689 -11 10 C-11 8.35 -11 6.7 -11 5 C-7.04 5 -3.08 5 1 5 C0.67 3.35 0.34 1.7 0 0 Z " fill="#CFAEC6" transform="translate(61,32)"/>
<path d="M0 0 C1.4375 3.625 1.4375 3.625 2 7 C-0.31 7 -2.62 7 -5 7 C-5.226875 6.4225 -5.45375 5.845 -5.6875 5.25 C-7.33038023 2.4336339 -9.39533227 0.91922886 -12 -1 C-7.4827728 -2.36885673 -4.29554286 -1.94515148 0 0 Z " fill="#EE2667" transform="translate(60,30)"/>
<path d="M0 0 C5.94 0 11.88 0 18 0 C18 0.99 18 1.98 18 3 C12.06 3 6.12 3 0 3 C0 2.01 0 1.02 0 0 Z " fill="#E3E1F3" transform="translate(18,38)"/>
<path d="M0 0 C0 2.97 0 5.94 0 9 C-2.64 9 -5.28 9 -8 9 C-6.68994234 5.06982701 -4.75047804 0 0 0 Z " fill="#669BE8" transform="translate(18,20)"/>
<path d="M0 0 C5.61 0.66 11.22 1.32 17 2 C17 2.66 17 3.32 17 4 C10.07 4 3.14 4 -4 4 C-4 3.34 -4 2.68 -4 2 C-2.68 2 -1.36 2 0 2 C0 1.34 0 0.68 0 0 Z " fill="#ED2766" transform="translate(20,33)"/>
<path d="M0 0 C0.66 0.33 1.32 0.66 2 1 C1.67 2.65 1.34 4.3 1 6 C3.43717258 5.72965366 3.43717258 5.72965366 6 5 C6.66 4.01 7.32 3.02 8 2 C8.66 2 9.32 2 10 2 C8.60478153 5.37177797 7.23717239 7.25017709 4 9 C0.25 9.1875 0.25 9.1875 -3 9 C-3.1875 5.625 -3.1875 5.625 -3 2 C-2.01 1.34 -1.02 0.68 0 0 Z " fill="#464547" transform="translate(7,36)"/>
<path d="M0 0 C0.33 1.32 0.66 2.64 1 4 C-3.29 4 -7.58 4 -12 4 C-4.51612903 -1.61290323 -4.51612903 -1.61290323 0 0 Z " fill="#40A0FC" transform="translate(36,24)"/>
<path d="M0 0 C1 1 1 1 1.0625 3.5625 C1.041875 4.366875 1.02125 5.17125 1 6 C3.97 6 6.94 6 10 6 C10 6.33 10 6.66 10 7 C6.7 7 3.4 7 0 7 C-0.33 5.68 -0.66 4.36 -1 3 C-1.99 3.495 -1.99 3.495 -3 4 C-3.33 3.34 -3.66 2.68 -4 2 C-6.52733235 1.34444881 -6.52733235 1.34444881 -9 1 C-8 -1 -8 -1 -6.1875 -1.75 C-3.47867724 -2.05957974 -2.28539999 -1.41852413 0 0 Z " fill="#564F59" transform="translate(49,36)"/>
<path d="M0 0 C0 0.66 0 1.32 0 2 C-2.66503748 3.33251874 -5.03565201 3.01132019 -7.95703125 2.96875 C-10.39296825 3.00601099 -12.63993309 3.40998327 -15 4 C-11.3460697 -1.5678938 -5.94143168 -0.36877852 0 0 Z " fill="#2B2A2B" transform="translate(58,43)"/>
<path d="M0 0 C1.98 0 3.96 0 6 0 C5.2884375 0.804375 5.2884375 0.804375 4.5625 1.625 C2.71813924 4.42842836 2.37543153 6.69620258 2 10 C1.01 9.67 0.02 9.34 -1 9 C-0.67 6.03 -0.34 3.06 0 0 Z " fill="#F3527E" transform="translate(1,33)"/>
<path d="M0 0 C1.65 0.33 3.3 0.66 5 1 C4.67 2.65 4.34 4.3 4 6 C2.35 5.67 0.7 5.34 -1 5 C-0.67 3.35 -0.34 1.7 0 0 Z " fill="#DFDCEF" transform="translate(41,37)"/>
<path d="M0 0 C1.65 0.33 3.3 0.66 5 1 C4.67 2.65 4.34 4.3 4 6 C2.35 5.67 0.7 5.34 -1 5 C-0.67 3.35 -0.34 1.7 0 0 Z " fill="#DEDDEE" transform="translate(8,37)"/>
<path d="M0 0 C2 2 2 2 2.3125 4 C2.539375 4.66 2.76625 5.32 3 6 C4.65204456 6.70211894 6.31923769 7.36971413 8 8 C8.33 8.99 8.66 9.98 9 11 C5.02958963 11.22057835 3.76687864 10.88343932 0 9 C0 6.03 0 3.06 0 0 Z " fill="#F75E88" transform="translate(18,22)"/>
<path d="M0 0 C1.0725 0.53625 2.145 1.0725 3.25 1.625 C3.25 2.285 3.25 2.945 3.25 3.625 C-4.25769231 3.99423077 -4.25769231 3.99423077 -6.75 2.125 C-7.08 1.63 -7.41 1.135 -7.75 0.625 C-4.61227723 -1.75966931 -3.83407554 -1.4058277 0 0 Z " fill="#4E82E0" transform="translate(49.75,25.375)"/>
<path d="M0 0 C2.97 0 5.94 0 9 0 C8.34 1.32 7.68 2.64 7 4 C4.69 4 2.38 4 0 4 C0.66 3.67 1.32 3.34 2 3 C2 2.34 2 1.68 2 1 C1.34 0.67 0.68 0.34 0 0 Z " fill="#3A363C" transform="translate(17,42)"/>
<path d="M0 0 C3 1.8125 3 1.8125 6 4 C6 4.99 6 5.98 6 7 C4.68 7 3.36 7 2 7 C1.896875 6.360625 1.79375 5.72125 1.6875 5.0625 C1.460625 4.381875 1.23375 3.70125 1 3 C0.01 2.67 -0.98 2.34 -2 2 C-1.34 1.34 -0.68 0.68 0 0 Z " fill="#FA8D64" transform="translate(49,30)"/>
<path d="M0 0 C0.33 1.32 0.66 2.64 1 4 C-2.3 4 -5.6 4 -9 4 C-4.5 0 -4.5 0 0 0 Z " fill="#FE8094" transform="translate(18,29)"/>
<path d="M0 0 C2.64 0.33 5.28 0.66 8 1 C5.37801226 3.15377564 3.35595828 4.40072174 0 5 C0 3.35 0 1.7 0 0 Z " fill="#7BBBFA" transform="translate(22,21)"/>
<path d="M0 0 C1.79133978 -0.05391993 3.58313899 -0.09275571 5.375 -0.125 C6.37273438 -0.14820312 7.37046875 -0.17140625 8.3984375 -0.1953125 C11 0 11 0 13 2 C11.58696762 2.2506019 10.16920526 2.47461921 8.75 2.6875 C7.96109375 2.81511719 7.1721875 2.94273438 6.359375 3.07421875 C3.37172981 2.98023653 2.19073117 1.95457437 0 0 Z " fill="#F8638E" transform="translate(30,17)"/>
<path d="M0 0 C0.99 0 1.98 0 3 0 C3 1.65 3 3.3 3 5 C1.68 5 0.36 5 -1 5 C-0.67 3.35 -0.34 1.7 0 0 Z " fill="#563F4E" transform="translate(38,25)"/>
<path d="M0 0 C2.97 0 5.94 0 9 0 C9 0.33 9 0.66 9 1 C7.35 1 5.7 1 4 1 C4.99 2.32 5.98 3.64 7 5 C6.67 5.66 6.34 6.32 6 7 C4.02 4.69 2.04 2.38 0 0 Z " fill="#687ED0" transform="translate(35,19)"/>
<path d="M0 0 C0.433125 0.61875 0.86625 1.2375 1.3125 1.875 C2.99740483 4.2197245 2.99740483 4.2197245 6 6 C3.69 6.33 1.38 6.66 -1 7 C-1 4.37886292 -0.68707555 2.49064888 0 0 Z " fill="#49474A" transform="translate(38,38)"/>
<path d="M0 0 C1.32 0.33 2.64 0.66 4 1 C4.33 2.98 4.66 4.96 5 7 C4.01 7 3.02 7 2 7 C2 5.35 2 3.7 2 2 C1.34 2 0.68 2 0 2 C0 1.34 0 0.68 0 0 Z " fill="#DA1150" transform="translate(57,30)"/>
<path d="M0 0 C0 0.99 0 1.98 0 3 C-2.97 3 -5.94 3 -9 3 C-6.15236477 0.15236477 -3.96383452 0 0 0 Z " fill="#1E8FFB" transform="translate(37,25)"/>
<path d="M0 0 C3.63 0 7.26 0 11 0 C11 0.66 11 1.32 11 2 C9.01432292 1.96744792 7.02864583 1.93489583 5.04296875 1.90234375 C2.79694539 1.91736783 2.79694539 1.91736783 0 3 C0 2.01 0 1.02 0 0 Z " fill="#D3C7E7" transform="translate(51,38)"/>
<path d="M0 0 C0.99 0 1.98 0 3 0 C3 1.98 3 3.96 3 6 C2.01 5.67 1.02 5.34 0 5 C0 3.35 0 1.7 0 0 Z " fill="#DBC6E2" transform="translate(0,37)"/>
<path d="M0 0 C0.66 0.33 1.32 0.66 2 1 C1.360625 1.556875 0.72125 2.11375 0.0625 2.6875 C-2.19680987 5.22066561 -2.63149047 6.68341424 -3 10 C-3.33 10 -3.66 10 -4 10 C-4.25 7.25 -4.25 7.25 -4 4 C-2 1.625 -2 1.625 0 0 Z " fill="#796A72" transform="translate(7,33)"/>
</svg>
